<?xml version="1.0" encoding="utf-8"?>
<!DOCTYPE svg PUBLIC "-//W3C//DTD SVG 1.1//EN" "http://www.w3.org/Graphics/SVG/1.1/DTD/svg11.dtd">
<svg style="width:308px;height:308px;" version="1.1" id="图形" xmlns="http://www.w3.org/2000/svg" xmlns:xlink="http://www.w3.org/1999/xlink" x="0px" y="0px" width="1024px" height="1024px" viewBox="0 0 1024 1024" enable-background="new 0 0 1024 1024" xml:space="preserve">
  <path class="svgpath" data-index="path_0" fill="#fff" d="M930.436096 2.456576 94.215168 2.456576c-50.690048 0-91.78112 41.091072-91.78112 91.780096l0 836.221952c0 50.688 41.091072 91.780096 91.78112 91.780096l836.220928 0c50.689024 0 91.780096-41.092096 91.780096-91.780096L1022.216192 94.236672C1022.216192 43.547648 981.12512 2.456576 930.436096 2.456576zM170.619904 109.200384l683.41248 0c33.933312 0 61.44 27.507712 61.44 61.44l0 317.468672-27.916288-29.80864c-18.398208-19.64544-48.86528-21.691392-69.722112-4.685824L663.20384 579.672064l-280.763392-249.56928c-19.248128-17.108992-48.207872-17.258496-67.633152-0.350208L109.179904 508.752896 109.179904 170.640384C109.179904 136.708096 136.687616 109.200384 170.619904 109.200384zM854.03136 915.49184 170.619904 915.49184c-33.932288 0-61.44-27.505664-61.44-61.44L109.179904 644.51584 348.070912 436.559872l279.683072 248.60672c9.679872 8.603648 21.839872 12.932096 34.019328 12.932096 11.447296 0 22.912-3.823616 32.347136-11.515904l151.36768-123.396096 69.984256 74.728448 0 216.137728C915.47136 887.986176 887.964672 915.49184 854.03136 915.49184z" />

</svg>
