<?xml version="1.0" encoding="utf-8"?>
<!DOCTYPE svg PUBLIC "-//W3C//DTD SVG 1.1//EN" "http://www.w3.org/Graphics/SVG/1.1/DTD/svg11.dtd">
<svg style="width:308px;height:308px;" version="1.1" id="图形" xmlns="http://www.w3.org/2000/svg" xmlns:xlink="http://www.w3.org/1999/xlink" x="0px" y="0px" width="1024px" height="1024px" viewBox="0 0 1024 1024" enable-background="new 0 0 1024 1024" xml:space="preserve">
  <path class="svgpath" data-index="path_0" fill="#fff" d="M921.6 210.488889l-130.844444 0L790.755556 119.466667c0-51.2-39.822222-91.022222-91.022222-91.022222L324.266667 28.444444c-51.2 0-91.022222 39.822222-91.022222 91.022222l0 91.022222L102.4 210.488889c-51.2 0-91.022222 39.822222-91.022222 91.022222l0 608.711111c0 51.2 39.822222 91.022222 91.022222 91.022222l824.888889 0c51.2 0 91.022222-39.822222 91.022222-91.022222L1018.311111 301.511111C1012.622222 250.311111 972.8 210.488889 921.6 210.488889zM290.133333 119.466667c0-17.066667 11.377778-34.133333 34.133333-34.133333l381.155556 0c17.066667 0 34.133333 11.377778 34.133333 34.133333l0 91.022222L290.133333 210.488889 290.133333 119.466667zM290.133333 267.377778l443.733333 0 0 85.333333c0 17.066667-11.377778 34.133333-34.133333 34.133333L324.266667 386.844444c-17.066667 0-34.133333-11.377778-34.133333-34.133333L290.133333 267.377778zM955.733333 904.533333c0 17.066667-11.377778 34.133333-34.133333 34.133333L102.4 938.666667c-17.066667 0-34.133333-11.377778-34.133333-34.133333L68.266667 301.511111c0-17.066667 11.377778-34.133333 34.133333-34.133333l130.844444 0 0 85.333333c0 51.2 39.822222 91.022222 91.022222 91.022222l381.155556 0c51.2 0 91.022222-39.822222 91.022222-91.022222L796.444444 267.377778l130.844444 0c17.066667 0 34.133333 11.377778 34.133333 34.133333L961.422222 904.533333z" />
<path class="svgpath" data-index="path_1" fill="#fff" d="M768 557.511111l-512 0C238.933333 557.511111 227.555556 568.888889 227.555556 585.955556s11.377778 28.444444 28.444444 28.444444l512 0c17.066667 0 28.444444-11.377778 28.444444-28.444444S785.066667 557.511111 768 557.511111z" />

</svg>
