<?xml version="1.0" encoding="utf-8"?>
<!DOCTYPE svg PUBLIC "-//W3C//DTD SVG 1.1//EN" "http://www.w3.org/Graphics/SVG/1.1/DTD/svg11.dtd">
<svg style="width:308px;height:308px;" version="1.1" id="图形" xmlns="http://www.w3.org/2000/svg" xmlns:xlink="http://www.w3.org/1999/xlink" x="0px" y="0px" width="1024px" height="1024px" viewBox="0 0 1024 1024" enable-background="new 0 0 1024 1024" xml:space="preserve">
  <path class="svgpath" data-index="path_0" fill="#fff" d="M928 0 224 0C170.976 0 128 42.944 128 96l0 64L96 160C42.976 160 0 202.944 0 256l0 640c0 70.688 57.312 128 128 128l768 0c70.688 0 128-57.312 128-128L1024 96C1024 42.944 981.024 0 928 0zM960 896c0 35.264-28.704 64-64 64L128 960c-35.296 0-64-28.736-64-64L64 256c0-17.664 14.336-32 32-32l32 0 0 640c0 17.696 14.304 32 32 32s32-14.304 32-32L192 96c0-17.664 14.336-32 32-32l704 0c17.664 0 32 14.336 32 32L960 896z" />
<path class="svgpath" data-index="path_1" fill="#fff" d="M623.968 416.16l256 0c8.832 0 16-7.168 16-16s-7.168-16-16-16l-256 0c-8.832 0-16 7.168-16 16S615.136 416.16 623.968 416.16z" />
<path class="svgpath" data-index="path_2" fill="#fff" d="M623.968 320.16l256 0c8.832 0 16-7.168 16-16s-7.168-16-16-16l-256 0c-8.832 0-16 7.168-16 16S615.136 320.16 623.968 320.16z" />
<path class="svgpath" data-index="path_3" fill="#fff" d="M623.968 224.16l256 0c8.832 0 16-7.168 16-16s-7.168-16-16-16l-256 0c-8.832 0-16 7.168-16 16S615.136 224.16 623.968 224.16z" />
<path class="svgpath" data-index="path_4" fill="#fff" d="M528 864.128l-256 0c-8.832 0-16 7.2-16 16 0 8.864 7.168 16 16 16l256 0c8.832 0 16-7.136 16-16C544 871.328 536.832 864.128 528 864.128z" />
<path class="svgpath" data-index="path_5" fill="#fff" d="M528 768.128l-256 0c-8.832 0-16 7.2-16 16 0 8.864 7.168 16 16 16l256 0c8.832 0 16-7.136 16-16C544 775.328 536.832 768.128 528 768.128z" />
<path class="svgpath" data-index="path_6" fill="#fff" d="M528 672.128l-256 0c-8.832 0-16 7.2-16 16 0 8.864 7.168 16 16 16l256 0c8.832 0 16-7.136 16-16C544 679.328 536.832 672.128 528 672.128z" />
<path class="svgpath" data-index="path_7" fill="#fff" d="M880 864.128l-256 0c-8.832 0-16 7.2-16 16 0 8.864 7.168 16 16 16l256 0c8.832 0 16-7.136 16-16C896 871.328 888.832 864.128 880 864.128z" />
<path class="svgpath" data-index="path_8" fill="#fff" d="M880 768.128l-256 0c-8.832 0-16 7.2-16 16 0 8.864 7.168 16 16 16l256 0c8.832 0 16-7.136 16-16C896 775.328 888.832 768.128 880 768.128z" />
<path class="svgpath" data-index="path_9" fill="#fff" d="M880 672.128l-256 0c-8.832 0-16 7.2-16 16 0 8.864 7.168 16 16 16l256 0c8.832 0 16-7.136 16-16C896 679.328 888.832 672.128 880 672.128z" />
<path class="svgpath" data-index="path_10" fill="#fff" d="M880 480.128l-608 0c-8.832 0-16 7.168-16 16s7.168 16 16 16l608 0c8.832 0 16-7.168 16-16S888.832 480.128 880 480.128z" />
<path class="svgpath" data-index="path_11" fill="#fff" d="M880 576.128l-608 0c-8.832 0-16 7.2-16 16 0 8.864 7.168 16 16 16l608 0c8.832 0 16-7.136 16-16C896 583.328 888.832 576.128 880 576.128z" />
<path class="svgpath" data-index="path_12" fill="#fff" d="M288 416l224 0c17.696 0 32-14.304 32-32L544 160.128c0-17.696-14.304-32-32-32L288 128.128c-17.696 0-32 14.304-32 32L256 384C256 401.664 270.304 416 288 416zM320 192l160 0 0 160-160 0L320 192z" />

</svg>
